<?xml version="1.0" encoding="UTF-8"?>
<svg id="Layer_1" xmlns="http://www.w3.org/2000/svg" version="1.1" viewBox="0 0 40.46 61.44">
  <!-- Generator: Adobe Illustrator 30.5.1, SVG Export Plug-In . SVG Version: 2.1.4 Build 3)  -->
  <defs>
    <style>
      .st0 {
        fill: #0fb1fe;
      }

      .st1 {
        fill: #001c75;
      }

      .st2 {
        fill: #fe045b;
      }
    </style>
  </defs>
  <path class="st2" d="M24.64,57.45c.23-1.68.12-3.48-.11-5.17-.33-2.5-1.01-4.65-.65-5.96.55-1.76,2.14-1.52,4.16-1.19,2.52.51,6.18,1.11,8.79.56,3.49-.6,4.4-3.08,3.03-6.1-1.47-3.13-3.79-5.07-6.71-8.07-.41-.41-.83-.83-1.25-1.25-2.73,2.75-5.66,5.78-8.26,7.98-1.77,1.38-3.2,2.29-5.23,1.71-1.45-.48-2.78-1.61-4.04-2.74-1.24-1.13-2.54-2.43-3.79-3.69-.81-.84-1.73-1.74-2.66-2.66-1.12,1.12-2.21,2.21-3.2,3.22-1.64,1.74-3.61,3.55-4.46,5.73-.68,2.02.16,3.47,1.53,5.25,2.7,3.24,6.69,6.93,9.86,10.17,2.3,2.27,4.04,4.03,6.22,5.23,3.89,2.14,6.35.65,6.78-2.97v-.04Z"/>
  <path class="st0" d="M12.29,26.47c1.47-1.44,3.03-3.02,4.64-4.21,2-1.53,3.97-1.77,6.11-.27,2.24,1.53,4.36,3.81,6.4,5.8.81.81,1.63,1.63,2.45,2.45.64-.64,1.27-1.27,1.88-1.87,2.24-2.27,3.96-3.99,5.14-6.14,2.12-3.88.63-6.32-2.97-6.75h-.04c-1.68-.24-3.48-.12-5.17.1-4.45.64-8.39,2.36-7.15-3.48.24-1.31.56-2.87.69-4.48.37-3.92-.25-8.96-5.39-7.32-4.31,1.48-7.01,4.92-10.39,8.16-1.12,1.12-2.28,2.27-3.38,3.39-3.85,3.94-7.08,6.94-3.32,12.33,1.43,2.03,3.84,4.41,6.12,6.65,1.48-1.48,3-3,4.38-4.38Z"/>
  <path class="st1" d="M10.57,33.51c1.25,1.25,2.55,2.55,3.79,3.69,1.26,1.14,2.59,2.27,4.04,2.74,2.03.59,3.46-.32,5.23-1.71,2.6-2.2,5.53-5.23,8.26-7.98-.82-.82-1.64-1.64-2.45-2.45-2.04-2-4.16-4.28-6.4-5.8-2.14-1.5-4.11-1.26-6.11.27-1.62,1.19-3.17,2.76-4.64,4.21-1.38,1.38-2.9,2.9-4.38,4.38.94.92,1.85,1.82,2.66,2.66Z"/>
</svg>